<svg width="231.945" height="356.218" viewBox="0 0 231.945 356.218" xmlns="http://www.w3.org/2000/svg"><g id="svgGroup" stroke-linecap="round" fill-rule="evenodd" font-size="9pt" stroke="#000" stroke-width="0.25mm" fill="#000" style="stroke:#000;stroke-width:0.25mm;fill:#000"><path d="M 0.004 240.977 L 0.004 0.01 L 44.438 0.01 L 44.438 24.669 A 111.665 111.665 0 0 1 115.971 0.01 A 112.319 112.319 0 0 1 174.321 15.635 A 118.607 118.607 0 0 1 216.313 57.384 Q 231.938 83.507 231.938 115.245 A 110.278 110.278 0 0 1 213.139 177.989 A 110.68 110.68 0 0 1 231.938 240.977 Q 231.938 272.471 216.313 298.717 A 118.286 118.286 0 0 1 174.321 340.587 Q 147.954 356.212 115.971 356.212 Q 84.233 356.212 57.866 340.587 A 119.286 119.286 0 0 1 15.751 298.717 A 110.125 110.125 0 0 1 0.004 240.977 Z M 169.194 192.882 L 168.95 192.882 A 28.576 28.576 0 0 0 167.384 191.089 A 33.179 33.179 0 0 0 166.752 190.44 A 31.003 31.003 0 0 0 164.998 188.812 A 26.719 26.719 0 0 0 164.311 188.243 A 38.542 38.542 0 0 0 162.386 186.45 A 44.734 44.734 0 0 0 161.625 185.801 Q 160.405 184.825 158.94 183.848 Q 157.719 182.872 156.254 181.895 L 153.325 179.942 A 3.325 3.325 0 0 1 152.578 179.59 A 2.82 2.82 0 0 1 152.104 179.21 A 18.778 18.778 0 0 1 151.202 178.729 Q 150.774 178.485 150.407 178.241 A 11.306 11.306 0 0 1 150.395 178.233 Q 150.193 178.233 149.991 178.066 A 1.214 1.214 0 0 1 149.907 177.989 Q 134.526 169.688 115.971 169.688 A 77.505 77.505 0 0 0 87.956 175.334 A 70.908 70.908 0 0 0 64.946 190.806 A 67.846 67.846 0 0 0 44.443 240.049 A 85.885 85.885 0 0 0 44.438 240.977 A 68.212 68.212 0 0 0 64.665 290.62 A 82.147 82.147 0 0 0 65.312 291.27 A 69.078 69.078 0 0 0 115.043 312.017 A 84.907 84.907 0 0 0 115.971 312.022 A 71.588 71.588 0 0 0 147.633 305.086 A 71.493 71.493 0 0 0 166.875 291.27 A 68.2 68.2 0 0 0 187.743 241.898 A 83.033 83.033 0 0 0 187.749 240.977 A 69.273 69.273 0 0 0 180.913 210.46 Q 180.913 210.257 180.745 210.055 A 1.214 1.214 0 0 0 180.668 209.971 A 64.07 64.07 0 0 0 179.753 207.931 A 52.916 52.916 0 0 0 179.204 206.798 A 2.939 2.939 0 0 1 178.599 205.907 A 3.609 3.609 0 0 1 178.471 205.577 A 13.561 13.561 0 0 1 177.983 204.783 Q 177.743 204.363 177.502 203.883 A 21.935 21.935 0 0 1 177.495 203.868 L 175.542 200.938 A 41.03 41.03 0 0 0 174.321 199.203 A 34.311 34.311 0 0 0 173.588 198.253 L 169.194 192.882 Z M 115.971 43.956 A 70.338 70.338 0 0 0 82.221 52.062 A 72.561 72.561 0 0 0 65.312 64.708 Q 44.438 85.46 44.438 115.245 A 70.988 70.988 0 0 0 48.706 139.989 A 67.165 67.165 0 0 0 51.03 145.518 Q 80.083 125.743 115.971 125.743 Q 152.104 125.743 180.913 145.518 A 67.61 67.61 0 0 0 187.747 115.755 A 78.016 78.016 0 0 0 187.749 115.245 Q 187.749 85.46 166.875 64.708 Q 146 43.956 115.971 43.956 Z" vector-effect="non-scaling-stroke"/></g></svg>