<svg width="18.556" height="28.497" viewBox="0 0 18.556 28.497" xmlns="http://www.w3.org/2000/svg"><g id="svgGroup" stroke-linecap="round" fill-rule="evenodd" font-size="9pt" stroke="#d9d9d9" stroke-width="0.25mm" fill="#d9d9d9" style="stroke:#d9d9d9;stroke-width:0.25mm;fill:#d9d9d9"><path d="M 0 19.278 L 0 0.001 L 3.555 0.001 L 3.555 1.973 Q 6.036 0.001 9.278 0.001 Q 11.836 0.001 13.946 1.251 Q 16.055 2.501 17.305 4.591 Q 18.555 6.681 18.555 9.22 Q 18.555 11.993 17.051 14.239 Q 18.555 16.485 18.555 19.278 Q 18.555 21.798 17.305 23.897 Q 16.055 25.997 13.946 27.247 A 8.986 8.986 0 0 1 9.278 28.497 A 8.949 8.949 0 0 1 4.629 27.247 A 9.543 9.543 0 0 1 1.26 23.897 Q 0 21.798 0 19.278 Z M 13.536 15.431 L 13.516 15.431 A 2.286 2.286 0 0 0 13.391 15.287 A 2.654 2.654 0 0 0 13.34 15.235 A 2.48 2.48 0 0 0 13.2 15.105 A 2.137 2.137 0 0 0 13.145 15.059 A 3.083 3.083 0 0 0 12.991 14.916 A 3.579 3.579 0 0 0 12.93 14.864 A 2.872 2.872 0 0 0 12.8 14.766 A 3.43 3.43 0 0 0 12.715 14.708 A 2.872 2.872 0 0 0 12.585 14.61 A 3.43 3.43 0 0 0 12.5 14.552 L 12.266 14.395 A 0.266 0.266 0 0 1 12.206 14.367 A 0.226 0.226 0 0 1 12.168 14.337 A 1.502 1.502 0 0 1 12.096 14.298 Q 12.062 14.279 12.033 14.259 A 0.941 0.941 0 0 1 12.032 14.259 A 0.043 0.043 0 0 1 12.012 14.254 Q 12.006 14.251 11.999 14.245 A 0.097 0.097 0 0 1 11.993 14.239 A 5.593 5.593 0 0 0 9.416 13.577 A 6.557 6.557 0 0 0 9.278 13.575 A 6.2 6.2 0 0 0 7.036 14.027 A 5.673 5.673 0 0 0 5.196 15.265 A 5.428 5.428 0 0 0 3.555 19.204 A 6.873 6.873 0 0 0 3.555 19.278 A 5.457 5.457 0 0 0 5.173 23.25 A 6.574 6.574 0 0 0 5.225 23.302 A 5.526 5.526 0 0 0 9.203 24.961 A 6.794 6.794 0 0 0 9.278 24.962 A 5.727 5.727 0 0 0 11.811 24.407 A 5.719 5.719 0 0 0 13.35 23.302 A 5.456 5.456 0 0 0 15.019 19.352 A 6.644 6.644 0 0 0 15.02 19.278 Q 15.02 17.97 14.473 16.837 A 0.043 0.043 0 0 0 14.468 16.817 Q 14.465 16.811 14.46 16.804 A 0.097 0.097 0 0 0 14.453 16.798 A 5.126 5.126 0 0 0 14.38 16.634 A 4.234 4.234 0 0 0 14.336 16.544 A 0.235 0.235 0 0 1 14.288 16.473 A 0.289 0.289 0 0 1 14.278 16.446 A 1.085 1.085 0 0 1 14.239 16.383 Q 14.219 16.348 14.2 16.309 L 14.043 16.075 A 3.282 3.282 0 0 0 13.946 15.936 A 2.745 2.745 0 0 0 13.887 15.86 L 13.536 15.431 Z M 9.278 3.516 A 5.627 5.627 0 0 0 6.578 4.165 A 5.805 5.805 0 0 0 5.225 5.177 A 5.478 5.478 0 0 0 3.555 9.145 A 6.754 6.754 0 0 0 3.555 9.22 A 5.679 5.679 0 0 0 3.897 11.199 A 5.373 5.373 0 0 0 4.082 11.641 A 9.025 9.025 0 0 1 9.278 10.059 Q 12.168 10.059 14.473 11.641 A 5.409 5.409 0 0 0 15.02 9.26 A 6.237 6.237 0 0 0 15.02 9.22 A 5.592 5.592 0 0 0 14.4 6.584 A 5.737 5.737 0 0 0 13.35 5.177 A 5.548 5.548 0 0 0 9.353 3.517 A 6.905 6.905 0 0 0 9.278 3.516 Z" vector-effect="non-scaling-stroke"/></g></svg>