<?xml version="1.0" standalone="no"?>
<!DOCTYPE svg PUBLIC "-//W3C//DTD SVG 20010904//EN"
 "http://www.w3.org/TR/2001/REC-SVG-20010904/DTD/svg10.dtd">
<svg version="1.0" xmlns="http://www.w3.org/2000/svg"
 width="1424.000000pt" height="1424.000000pt" viewBox="0 0 1424.000000 1424.000000"
 preserveAspectRatio="xMidYMid meet">
<metadata>
Created by potrace 1.14, written by Peter Selinger 2001-2017
</metadata>
<g transform="translate(0.000000,1424.000000) scale(0.100000,-0.100000)"
fill="#000000" stroke="none">
<path d="M2493 9213 l3 -5028 26 -185 c100 -700 318 -1282 696 -1865 182 -280
374 -517 617 -761 394 -396 808 -692 1300 -930 627 -304 1255 -444 1990 -444
737 0 1370 140 1990 439 949 459 1698 1195 2176 2140 321 632 469 1282 469
2051 0 393 -31 680 -112 1030 -100 433 -288 900 -513 1270 -48 80 -95 157
-103 171 -15 25 -13 29 50 130 288 462 474 924 593 1472 54 250 77 487 83 832
4 333 -3 470 -39 755 -122 949 -582 1862 -1299 2581 -389 389 -808 689 -1285
920 -480 232 -932 361 -1510 431 -75 9 -240 13 -520 13 -391 0 -420 -2 -614
-28 -776 -105 -1499 -399 -2104 -855 -60 -45 -111 -82 -113 -82 -2 0 -4 218
-4 485 l0 485 -890 0 -890 0 3 -5027z m4862 3257 c390 -28 718 -116 1050 -280
298 -147 554 -335 790 -581 437 -454 670 -928 768 -1559 28 -187 31 -628 4
-800 -28 -177 -75 -372 -124 -515 -52 -150 -118 -301 -130 -297 -4 1 -50 30
-102 63 -660 426 -1383 658 -2211 710 -405 25 -942 -18 -1326 -107 -527 -121
-1006 -327 -1485 -637 l-57 -36 -37 82 c-86 188 -167 490 -207 767 -17 125
-17 581 1 710 24 176 71 399 112 527 102 316 264 618 475 883 87 109 354 376
464 464 144 115 348 244 515 326 467 230 949 319 1500 280z m208 -5049 c566
-84 1078 -329 1509 -725 211 -194 430 -463 537 -661 18 -33 36 -64 41 -70 18
-23 142 -310 180 -415 73 -205 130 -468 150 -690 67 -768 -160 -1497 -645
-2070 -89 -105 -302 -312 -415 -403 -501 -404 -1122 -617 -1800 -617 -685 0
-1293 215 -1812 641 -113 93 -364 349 -450 459 -305 392 -485 816 -565 1330
-26 164 -26 664 0 830 112 722 434 1287 1007 1771 388 328 933 559 1465 623
72 9 146 18 165 20 94 11 501 -4 633 -23z"/>
</g>
</svg>
